<?xml version="1.0" encoding="UTF-8" standalone="no"?>
<!-- Created with Inkscape (http://www.inkscape.org/) -->
<svg
   xmlns:dc="http://purl.org/dc/elements/1.1/"
   xmlns:cc="http://creativecommons.org/ns#"
   xmlns:rdf="http://www.w3.org/1999/02/22-rdf-syntax-ns#"
   xmlns:svg="http://www.w3.org/2000/svg"
   xmlns="http://www.w3.org/2000/svg"
   xmlns:sodipodi="http://sodipodi.sourceforge.net/DTD/sodipodi-0.dtd"
   xmlns:inkscape="http://www.inkscape.org/namespaces/inkscape"
   id="svg2"
   sodipodi:version="0.32"
   inkscape:version="0.46"
   width="596.99774"
   height="369.09323"
   xml:space="preserve"
   sodipodi:docname="pdg_muonsthroughmatter.svg"
   version="1.0"
   inkscape:output_extension="org.inkscape.output.svg.inkscape"><metadata
     id="metadata7"><rdf:RDF><cc:Work
         rdf:about=""><dc:format>image/svg+xml</dc:format><dc:type
           rdf:resource="http://purl.org/dc/dcmitype/StillImage" /></cc:Work></rdf:RDF></metadata><defs
     id="defs5"><inkscape:perspective
       sodipodi:type="inkscape:persp3d"
       inkscape:vp_x="0 : 526.18109 : 1"
       inkscape:vp_y="0 : 1000 : 0"
       inkscape:vp_z="744.09448 : 526.18109 : 1"
       inkscape:persp3d-origin="372.04724 : 350.78739 : 1"
       id="perspective9" /></defs><sodipodi:namedview
     inkscape:window-height="846"
     inkscape:window-width="1434"
     inkscape:pageshadow="2"
     inkscape:pageopacity="0.0"
     guidetolerance="10.0"
     gridtolerance="10.0"
     objecttolerance="10.0"
     borderopacity="1.0"
     bordercolor="#666666"
     pagecolor="#ffffff"
     id="base"
     showgrid="false"
     inkscape:zoom="1.3313606"
     inkscape:cx="309.9083"
     inkscape:cy="190.1998"
     inkscape:window-x="0"
     inkscape:window-y="0"
     inkscape:current-layer="g11" /><g
     id="g11"
     inkscape:groupmode="layer"
     inkscape:label="rpp2009-rev-passage-particles-matter"
     transform="matrix(1.25,0,0,-1.25,-110.14402,849.79155)"><path
       d="M 194.243,464.109 L 203.1444,464.109 L 203.1444,679.484 L 194.243,679.484 L 194.243,464.109 z"
       style="fill:#f2f2f2;fill-opacity:1;fill-rule:nonzero;stroke:none"
       id="path21" /><path
       d="M 195.87,464.109 L 201.1923,464.109 L 201.1923,679.484 L 195.87,679.484 L 195.87,464.109 z"
       style="fill:#e0e0e0;fill-opacity:1;fill-rule:nonzero;stroke:none"
       id="path23" /><path
       d="M 197.543,464.109 L 197.543,679.484 L 199.565,679.414 L 199.565,464.039"
       style="fill:#cccccc;fill-opacity:1;fill-rule:nonzero;stroke:none"
       id="path25" /><path
       d="M 385.358,464.109 L 394.2594,464.109 L 394.2594,679.484 L 385.358,679.484 L 385.358,464.109 z"
       style="fill:#f2f2f2;fill-opacity:1;fill-rule:nonzero;stroke:none"
       id="path27" /><path
       d="M 386.985,464.109 L 392.3073,464.109 L 392.3073,679.484 L 386.985,679.484 L 386.985,464.109 z"
       style="fill:#e0e0e0;fill-opacity:1;fill-rule:nonzero;stroke:none"
       id="path29" /><path
       d="M 388.658,464.109 L 388.658,679.484 L 390.68,679.414 L 390.68,464.039"
       style="fill:#cccccc;fill-opacity:1;fill-rule:nonzero;stroke:none"
       id="path31" /><path
       d="M 147.388,464.109 L 156.2894,464.109 L 156.2894,679.484 L 147.388,679.484 L 147.388,464.109 z"
       style="fill:#f2f2f2;fill-opacity:1;fill-rule:nonzero;stroke:none"
       id="path33" /><path
       d="M 149.015,464.109 L 154.3373,464.109 L 154.3373,679.484 L 149.015,679.484 L 149.015,464.109 z"
       style="fill:#e0e0e0;fill-opacity:1;fill-rule:nonzero;stroke:none"
       id="path35" /><path
       d="M 150.689,464.109 L 150.689,679.484 L 152.711,679.414 L 152.711,464.039"
       style="fill:#cccccc;fill-opacity:1;fill-rule:nonzero;stroke:none"
       id="path37" /><text
       transform="matrix(0.9950674,0,0,-1,291.9051,384.7174)"
       id="text39"><tspan
         style="font-size:11.21119976px;font-variant:normal;font-weight:normal;writing-mode:lr-tb;fill:#000000;fill-opacity:1;fill-rule:nonzero;stroke:none;font-family:NewCenturySchlbk;-inkscape-font-specification:NewCenturySchlbk-Roman"
         x="0 10.583373 17.433416 23.039017 29.889059 33.005772 42.97253 48.578129 58.544888 64.15049 71.000526 75.361687 82.211731"
         y="0"
         sodipodi:role="line"
         id="tspan41">Muon momentum</tspan></text>
<text
       transform="matrix(0.9950645,0,0,-1,111.0039,465.7277)"
       id="text43"><tspan
         style="font-size:10.09010029px;font-variant:normal;font-weight:normal;writing-mode:lr-tb;fill:#000000;fill-opacity:1;fill-rule:nonzero;stroke:none;font-family:NewCenturySchlbk;-inkscape-font-specification:NewCenturySchlbk-Roman"
         x="0"
         y="0"
         id="tspan45">1</tspan><tspan
         style="font-size:10.09010029px;font-variant:normal;font-weight:normal;writing-mode:lr-tb;fill:#000000;fill-opacity:1;fill-rule:nonzero;stroke:none;font-family:NewCenturySchlbk;-inkscape-font-specification:NewCenturySchlbk-Roman"
         x="-5.8028164 -0.1927209"
         y="-75.318558"
         sodipodi:role="line"
         id="tspan47">10</tspan><tspan
         style="font-size:10.09010029px;font-variant:normal;font-weight:normal;writing-mode:lr-tb;fill:#000000;fill-opacity:1;fill-rule:nonzero;stroke:none;font-family:NewCenturySchlbk;-inkscape-font-specification:NewCenturySchlbk-Roman"
         x="-11.045632 -5.4355369 0.17455873"
         y="-155.11813"
         sodipodi:role="line"
         id="tspan49">100</tspan></text>
<text
       transform="matrix(0,1,0.9950674,0,98.9138,494.3678)"
       id="text51"><tspan
         style="font-size:11.21119976px;font-variant:normal;font-weight:normal;writing-mode:lr-tb;fill:#000000;fill-opacity:1;fill-rule:nonzero;stroke:none;font-family:NewCenturySchlbk;-inkscape-font-specification:NewCenturySchlbk-Roman"
         x="0 7.063056 11.424212 17.029812 23.465042 29.90027 33.431797 40.281841 46.302258 49.418968 55.854198 61.459797 70.182114 75.787712 80.765488 83.882202 87.615524 98.198898 103.8045 111.89899 115.0157 119.99348"
         y="0"
         sodipodi:role="line"
         id="tspan53">Stopping power [MeV cm</tspan></text>
<text
       transform="matrix(0,1,0.9950645,0,95.567,624.3279)"
       id="text55"><tspan
         style="font-size:10.09010029px;font-variant:normal;font-weight:normal;writing-mode:lr-tb;fill:#000000;fill-opacity:1;fill-rule:nonzero;stroke:none;font-family:NewCenturySchlbk;-inkscape-font-specification:NewCenturySchlbk-Roman"
         x="0"
         y="0"
         id="tspan57">2</tspan></text>
<text
       transform="matrix(0,1,0.9950674,0,98.9138,629.938)"
       id="text59"><tspan
         style="font-size:11.21119976px;font-variant:normal;font-weight:normal;writing-mode:lr-tb;fill:#000000;fill-opacity:1;fill-rule:nonzero;stroke:none;font-family:NewCenturySchlbk;-inkscape-font-specification:NewCenturySchlbk-Roman"
         x="0 3.1167135 9.1371279"
         y="0"
         sodipodi:role="line"
         id="tspan61">/g]</tspan></text>
<g
       id="g63"
       transform="scale(0.997532,1.002475)"><path
         d="M 120.517,463.005 L 552.417,463.005 M 120.517,463.005 L 120.517,470.518 M 168.482,463.005 L 168.482,470.518 M 216.477,463.005 L 216.477,470.518 M 264.473,463.005 L 264.473,470.518 M 312.469,463.005 L 312.469,470.518 M 360.433,463.005 L 360.433,470.518 M 408.429,463.005 L 408.429,470.518 M 456.425,463.005 L 456.425,470.518 M 504.421,463.005 L 504.421,470.518 M 552.417,463.005 L 552.417,470.518 M 120.517,677.876 L 552.417,677.876 M 120.517,677.876 L 120.517,670.331 M 168.482,677.876 L 168.482,670.331 M 216.477,677.876 L 216.477,670.331 M 264.473,677.876 L 264.473,670.331 M 312.469,677.876 L 312.469,670.331 M 360.433,677.876 L 360.433,670.331 M 408.429,677.876 L 408.429,670.331 M 456.425,677.876 L 456.425,670.331 M 504.421,677.876 L 504.421,670.331 M 552.417,677.876 L 552.417,670.331 M 120.517,463.005 L 120.517,677.876 M 120.517,463.005 L 129.14,463.005 M 120.517,542.607 L 129.14,542.607 M 120.517,622.209 L 129.14,622.209 M 120.517,486.971 L 124.829,486.971 M 120.517,500.983 L 124.829,500.983 M 120.517,510.937 L 124.829,510.937 M 120.517,518.64 L 124.829,518.64 M 120.517,524.949 L 124.829,524.949 M 120.517,530.275 L 124.829,530.275 M 120.517,534.903 L 124.829,534.903 M 120.517,538.961 L 124.829,538.961 M 120.517,566.573 L 124.829,566.573 M 120.517,580.585 L 124.829,580.585 M 120.517,590.539 L 124.829,590.539 M 120.517,598.242 L 124.829,598.242 M 120.517,604.551 L 124.829,604.551 M 120.517,609.877 L 124.829,609.877 M 120.517,614.505 L 124.829,614.505 M 120.517,618.563 L 124.829,618.563 M 120.517,646.175 L 124.829,646.175 M 120.517,660.187 L 124.829,660.187 M 120.517,670.141 L 124.829,670.141 M 120.517,677.876 L 124.829,677.876 M 552.417,463.005 L 552.417,677.876 M 552.417,463.005 L 543.762,463.005 M 552.417,542.607 L 543.762,542.607 M 552.417,622.209 L 543.762,622.209 M 552.417,486.971 L 548.073,486.971 M 552.417,500.983 L 548.073,500.983 M 552.417,510.937 L 548.073,510.937 M 552.417,518.64 L 548.073,518.64 M 552.417,524.949 L 548.073,524.949 M 552.417,530.275 L 548.073,530.275 M 552.417,534.903 L 548.073,534.903 M 552.417,538.961 L 548.073,538.961 M 552.417,566.573 L 548.073,566.573 M 552.417,580.585 L 548.073,580.585 M 552.417,590.539 L 548.073,590.539 M 552.417,598.242 L 548.073,598.242 M 552.417,604.551 L 548.073,604.551 M 552.417,609.877 L 548.073,609.877 M 552.417,614.505 L 548.073,614.505 M 552.417,618.563 L 548.073,618.563 M 552.417,646.175 L 548.073,646.175 M 552.417,660.187 L 548.073,660.187 M 552.417,670.141 L 548.073,670.141 M 552.417,677.876 L 548.073,677.876"
         style="fill:none;stroke:#000000;stroke-width:0.447;stroke-linecap:butt;stroke-linejoin:miter;stroke-miterlimit:2.5;stroke-dasharray:none;stroke-opacity:1"
         id="path65" /></g><g
       id="g67"
       transform="scale(0.997532,1.002475)"><path
         d="M 128.379,589.937 L 132.627,596.087 L 135.607,600.525 L 137.953,604.012 L 139.855,606.865 L 142.835,611.462 L 145.149,615.044 L 147.051,617.992 L 148.668,620.497 L 150.063,622.684 L 151.299,624.65 L 152.377,626.393 L 154.723,629.532 L 156.625,632.036 L 158.21,634.128 L 159.605,635.872 L 160.841,637.33 L 161.919,638.598 L 162.934,639.676 L 163.821,640.627 L 165.438,642.18 L 166.833,643.385 L 168.069,644.304 L 169.147,645.034 L 170.162,645.636 L 171.049,646.112 L 171.905,646.492 L 172.666,646.809 L 173.395,647.062 L 174.061,647.253 L 174.695,647.411 L 175.297,647.57 L 175.836,647.665 L 176.375,647.76 L 178.721,647.95 L 180.591,647.823 L 182.208,647.506 L 183.603,647.126 L 184.839,646.619 L 185.917,646.08 L 186.932,645.509 L 187.819,644.875 L 189.436,643.607 L 190.831,642.307 L 192.067,641.008 L 193.145,639.74 L 194.16,638.408 L 195.047,637.108 L 195.903,635.809 L 196.664,634.54 L 197.393,633.336 L 198.059,632.195 L 198.693,631.085 L 199.295,630.007 L 199.834,629.025 L 200.373,628.042 L 202.719,623.825 L 204.621,620.275 L 206.206,617.2 L 207.601,614.474 L 208.837,611.937 L 209.947,609.687 L 210.93,607.626 L 211.849,605.692 L 213.434,602.237 L 214.829,599.193"
         style="fill:none;stroke:#000000;stroke-width:0.55900002;stroke-linecap:butt;stroke-linejoin:miter;stroke-miterlimit:2.5;stroke-dasharray:none;stroke-opacity:1"
         id="path69" /></g><g
       id="g71"
       transform="scale(0.997532,1.002475)"><path
         d="M 128.379,585.816 L 132.627,592.821 L 135.607,597.799 L 137.953,601.666 L 139.855,604.805 L 142.835,609.782 L 145.149,613.649 L 147.051,616.788 L 148.668,619.451 L 150.063,621.765 L 151.299,623.794 L 152.377,625.632 L 154.723,628.929 L 156.625,631.529 L 158.21,633.653 L 159.605,635.428 L 160.841,636.95 L 161.919,638.25 L 162.934,639.391 L 163.821,640.342 L 165.438,641.927 L 166.833,643.163 L 168.069,644.114 L 169.147,644.875 L 170.162,645.478 L 171.049,645.953 L 171.905,646.365 L 172.666,646.65 L 173.395,646.936 L 174.061,647.126 L 174.695,647.316 L 175.297,647.443 L 175.836,647.57 L 176.375,647.665 L 178.721,647.855 L 180.591,647.728 L 182.208,647.443 L 183.603,647.062 L 184.839,646.587 L 185.917,646.016 L 186.932,645.382 L 187.819,644.812 L 189.436,643.575 L 190.831,642.276 L 192.067,640.976 L 193.145,639.708 L 194.16,638.376 L 195.047,637.045 L 195.903,635.777 L 196.664,634.509 L 197.393,633.304 L 198.059,632.163 L 198.693,631.053 L 199.295,629.975 L 199.834,628.993 L 200.373,628.042 L 202.719,623.794 L 204.621,620.243 L 206.206,617.168 L 207.601,614.442 L 208.837,611.937 L 209.947,609.655 L 210.93,607.594 L 211.849,605.661 L 213.434,602.205 L 214.829,599.162"
         style="fill:none;stroke:#000000;stroke-width:0.55900002;stroke-linecap:butt;stroke-linejoin:miter;stroke-miterlimit:2.5;stroke-dasharray:4.4734, 3.3551;stroke-dashoffset:0;stroke-opacity:1"
         id="path73" /></g><g
       id="g75"
       transform="scale(0.997532,1.002475)"><path
         d="M 217.841,592.283 L 219.457,588.732 L 221.486,584.009 L 223.166,579.982 L 225.512,574.371 L 227.414,569.743 L 229.063,565.78 L 230.458,562.325 L 231.694,559.282 L 232.804,556.555 L 233.818,554.051 L 234.737,551.768 L 236.354,547.742 L 237.781,544.223 L 239.017,541.148 L 240.158,538.39 L 242.092,533.635 L 243.74,529.641 L 245.833,524.664 L 247.608,520.543 L 250.049,515.026 L 252.078,510.652 L 253.79,507.038 L 255.28,504.026 L 256.643,501.458 L 257.848,499.208 L 258.957,497.242 L 259.972,495.53 L 261.779,492.614 L 263.364,490.204 L 264.822,488.239 L 266.122,486.59 L 268.404,483.959 L 270.37,481.994 L 272.937,479.87 L 275.157,478.38 L 278.295,476.795 L 280.926,475.844 L 283.24,475.305 L 285.269,474.956 L 287.14,474.766 L 288.82,474.702 L 290.342,474.671 L 291.768,474.702 L 294.367,474.861 L 296.65,475.083 L 298.679,475.305 L 300.549,475.558 L 303.815,476.066 L 306.636,476.509 L 310.25,477.143 L 313.325,477.682 L 317.605,478.475 L 321.123,479.109 L 324.167,479.648 L 326.798,480.123 L 329.144,480.535 L 331.268,480.884 L 333.17,481.201 L 334.914,481.518 L 338.02,482.025 L 340.747,482.469 L 343.124,482.85 L 345.28,483.167 L 349.021,483.769 L 352.191,484.244 L 356.185,484.847 L 359.514,485.386 L 364.111,486.115 L 367.883,486.717 L 371.085,487.256 L 373.843,487.763 L 376.284,488.207 L 378.471,488.619 L 380.468,489.031 L 382.275,489.412 L 385.477,490.173 L 388.235,490.838 L 390.708,491.504 L 392.895,492.17 L 396.668,493.375 L 399.901,494.516 L 403.928,496.196 L 407.319,497.749 L 411.948,500.222 L 415.752,502.505 L 418.954,504.692 L 421.744,506.753 L 424.216,508.686 L 426.404,510.525 L 428.369,512.269 L 430.208,513.949 L 433.41,517.087 L 436.199,520.004 L 438.641,522.698 L 440.828,525.234 L 444.632,529.736 L 447.834,533.762 L 451.892,539.056 L 455.284,543.716 L 459.944,550.247 L 463.716,555.763 L 466.95,560.55 L 469.739,564.798 L 472.181,568.507 L 474.368,571.899 L 476.365,574.974 L 478.172,577.795 L 481.374,582.867 L 484.164,587.306 L 486.636,591.237 L 488.824,594.787 L 492.628,600.905 L 495.83,606.136 L 499.888,612.73 L 503.28,618.31 L 507.908,625.918 L 511.712,632.195 L 514.946,637.489 L 517.704,642.117 L 520.176,646.175 L 522.364,649.789 L 524.361,653.086 L 526.168,656.097 L 529.37,661.423 L 532.159,666.052 L 534.6,670.141 L 536.82,673.787 L 539.261,677.876"
         style="fill:none;stroke:#000000;stroke-width:0.55900002;stroke-linecap:butt;stroke-linejoin:miter;stroke-miterlimit:2.5;stroke-dasharray:none;stroke-opacity:1"
         id="path77" /></g><g
       id="g79"
       transform="scale(0.997532,1.002475)"><path
         d="M 415.879,463.005 L 418.954,468.869 L 421.744,474.163 L 424.216,478.697 L 426.404,482.754 L 428.369,486.432 L 430.208,489.76 L 433.41,495.689 L 436.199,500.793 L 438.64,505.294 L 440.828,509.32 L 444.632,516.104 L 447.834,521.842 L 451.892,529.038 L 455.284,535.062 L 459.944,543.177 L 463.716,549.803 L 466.95,555.414 L 469.739,560.264 L 472.18,564.449 L 474.368,568.221 L 476.365,571.613 L 478.172,574.72 L 481.374,580.204 L 484.164,584.96 L 486.636,589.144 L 488.824,592.917 L 492.628,599.352 L 495.83,604.773 L 499.887,611.62 L 503.28,617.327 L 507.908,625.157 L 511.712,631.561 L 514.946,636.95 L 517.704,641.61 L 520.176,645.731 L 522.364,649.408 L 524.361,652.737 L 526.168,655.78 L 529.37,661.138 L 532.159,665.798 L 534.6,669.919 L 536.82,673.597 L 539.387,677.876"
         style="fill:none;stroke:#000000;stroke-width:0.55900002;stroke-linecap:butt;stroke-linejoin:miter;stroke-miterlimit:2.5;stroke-dasharray:1.1184, 2.2367;stroke-dashoffset:0;stroke-opacity:1"
         id="path81" /></g><g
       id="g83"
       transform="scale(0.997532,1.002475)"><path
         d="M 356.185,484.34 L 359.514,484.752 L 364.111,485.259 L 367.883,485.671 L 371.085,485.988 L 373.843,486.242 L 376.284,486.464 L 378.471,486.686 L 380.468,486.844 L 382.275,487.003 L 385.477,487.256 L 388.235,487.478 L 390.708,487.668 L 392.895,487.859 L 396.668,488.112 L 399.901,488.334 L 403.928,488.619 L 407.319,488.841 L 411.948,489.127 L 415.752,489.348 L 418.954,489.539 L 421.744,489.697 L 424.216,489.856 L 426.404,489.982 L 428.369,490.078 L 430.208,490.173 L 433.41,490.363 L 436.199,490.521 L 438.641,490.648 L 440.828,490.775 L 444.632,490.965 L 447.834,491.124 L 451.892,491.346 L 455.284,491.536 L 459.944,491.758 L 463.716,491.948 L 466.95,492.106 L 469.739,492.265 L 472.181,492.392 L 474.368,492.487 L 476.365,492.582 L 478.172,492.677 L 481.374,492.836 L 484.164,492.994 L 486.636,493.089 L 488.824,493.216 L 492.628,493.406 L 495.83,493.533 L 499.888,493.755 L 503.28,493.914 L 507.908,494.135 L 511.712,494.294 L 514.946,494.452 L 517.704,494.579 L 520.176,494.706 L 522.364,494.801 L 524.361,494.896 L 526.168,494.991 L 529.37,495.118 L 532.159,495.245 L 534.6,495.372 L 536.82,495.467 L 540.624,495.625 L 543.826,495.784 L 547.883,495.974 L 551.244,496.101"
         style="fill:none;stroke:#000000;stroke-width:0.55900002;stroke-linecap:butt;stroke-linejoin:miter;stroke-miterlimit:2.5;stroke-dasharray:6.7101, 2.2367, 1.1184, 2.2367;stroke-dashoffset:0;stroke-opacity:1"
         id="path85" /></g><g
       id="g87"
       transform="scale(0.997532,1.002475)"><path
         d="M 120.517,572.766 L 128.031,585.256 L 176.026,664.859"
         style="fill:none;stroke:#000000;stroke-width:0.55900002;stroke-linecap:butt;stroke-linejoin:miter;stroke-miterlimit:2.5;stroke-dasharray:1.1184, 2.2367;stroke-dashoffset:0;stroke-opacity:1"
         id="path89" /></g><g
       id="g91"
       transform="scale(0.997532,1.002475)"><path
         d="M 289.898,463.005 L 289.898,506.719"
         style="fill:none;stroke:#000000;stroke-width:0.55900002;stroke-linecap:butt;stroke-linejoin:miter;stroke-miterlimit:2.5;stroke-dasharray:none;stroke-opacity:1"
         id="path93" /></g><g
       id="g95"
       transform="scale(0.997532,1.002475)"><path
         d="M 430.43,463.005 L 430.43,545.861"
         style="fill:none;stroke:#000000;stroke-width:0.447;stroke-linecap:butt;stroke-linejoin:miter;stroke-miterlimit:2.5;stroke-dasharray:none;stroke-opacity:1"
         id="path97" /></g><g
       id="g99"
       transform="scale(0.997532,1.002475)"><path
         d="M 278.295,477.524 L 280.926,476.731 L 283.24,476.287 L 285.269,476.034 L 287.14,475.97 L 288.82,475.97 L 290.342,476.034 L 291.768,476.161 L 294.367,476.446 L 296.65,476.795 L 298.679,477.143 L 300.549,477.492 L 303.815,478.189 L 306.636,478.855 L 310.25,479.711 L 313.325,480.44 L 317.605,481.486 L 321.123,482.342 L 324.167,483.103 L 326.798,483.706 L 329.144,484.276 L 331.268,484.752 L 333.17,485.195 L 334.914,485.608 L 338.02,486.305 L 340.747,486.876 L 343.124,487.415 L 345.28,487.858 L 349.021,488.619 L 352.191,489.253 L 356.185,490.046 L 359.514,490.68 L 364.111,491.504 L 367.883,492.17 L 371.085,492.74 L 373.843,493.184 L 376.284,493.596 L 378.471,493.945 L 380.468,494.262 L 382.275,494.547 L 385.477,495.055 L 388.235,495.467 L 390.708,495.815 L 392.895,496.132 L 396.668,496.671 L 399.901,497.115 L 403.928,497.686 L 407.319,498.13 L 411.948,498.732 L 415.752,499.207 L 418.954,499.62 L 421.744,499.968 L 424.216,500.254 L 426.404,500.539 L 428.369,500.761 L 430.208,500.983 L 433.41,501.363 L 436.199,501.68 L 438.641,501.965 L 440.828,502.219 L 444.632,502.631 L 447.834,503.012 L 451.892,503.455 L 455.284,503.804 L 459.944,504.311 L 463.716,504.692 L 466.95,505.041 L 469.739,505.326 L 472.181,505.579 L 474.368,505.801 L 476.365,505.992 L 478.172,506.182 L 481.374,506.499 L 484.164,506.784 L 486.636,507.006 L 488.824,507.228 L 492.628,507.608 L 495.83,507.894 L 499.888,508.306 L 503.28,508.623 L 507.908,509.035 L 511.712,509.384 L 514.946,509.669 L 517.704,509.923 L 520.176,510.144 L 522.364,510.335 L 524.361,510.525 L 526.168,510.683 L 529.37,510.969 L 532.159,511.191 L 534.6,511.413 L 536.82,511.603 L 540.624,511.92 L 543.826,512.205 L 547.883,512.522 L 551.244,512.807"
         style="fill:none;stroke:#000000;stroke-width:0.55900002;stroke-linecap:butt;stroke-linejoin:miter;stroke-miterlimit:2.5;stroke-dasharray:4.4734, 3.3551;stroke-dashoffset:0;stroke-opacity:1"
         id="path101" /></g><text
       transform="matrix(0,1,0.9950674,0,134.8016,532.9088)"
       id="text103"><tspan
         style="font-size:11.21119976px;font-variant:normal;font-weight:normal;writing-mode:lr-tb;fill:#231f20;fill-opacity:1;fill-rule:nonzero;stroke:none;font-family:NewCenturySchlbk;-inkscape-font-specification:NewCenturySchlbk-Roman"
         x="0 7.4778705 11.009398 17.859442 24.29467 31.144714 37.378139 42.355915 48.791142"
         y="0"
         sodipodi:role="line"
         id="tspan105">Lindhard-</tspan><tspan
         style="font-size:11.21119976px;font-variant:normal;font-weight:normal;writing-mode:lr-tb;fill:#231f20;fill-opacity:1;fill-rule:nonzero;stroke:none;font-family:NewCenturySchlbk;-inkscape-font-specification:NewCenturySchlbk-Roman"
         x="7.4778705 14.540926 19.5187 26.368742 32.602169 37.579941 41.313271"
         y="12.33232"
         sodipodi:role="line"
         id="tspan107">Scharff</tspan></text>
<text
       transform="matrix(0.9950674,0,0,-1,261.7172,604.9495)"
       id="text109"><tspan
         style="font-size:11.21119976px;font-variant:normal;font-weight:normal;writing-mode:lr-tb;fill:#231f20;fill-opacity:1;fill-rule:nonzero;stroke:none;font-family:NewCenturySchlbk;-inkscape-font-specification:NewCenturySchlbk-Roman"
         x="0 8.0944862 13.700087 18.061243 24.911287 30.516886 34.250217 42.344704 45.876232 51.481831 56.459602 154.0587 162.1532 168.38661 174.82185 178.35338 184.58681 188.94795 192.47949 198.49991"
         y="0"
         sodipodi:role="line"
         id="tspan111">Bethe-BlochRadiative</tspan><tspan
         style="font-size:11.21119976px;font-variant:normal;font-weight:normal;writing-mode:lr-tb;fill:#231f20;fill-opacity:1;fill-rule:nonzero;stroke:none;font-family:NewCenturySchlbk;-inkscape-font-specification:NewCenturySchlbk-Roman"
         x="64.181877 72.276367 78.509789 84.945023 88.476547 94.709976 99.071129 102.60266 108.62308"
         y="72.312241"
         sodipodi:role="line"
         id="tspan113">Radiative</tspan><tspan
         style="font-size:11.21119976px;font-variant:normal;font-weight:normal;writing-mode:lr-tb;fill:#231f20;fill-opacity:1;fill-rule:nonzero;stroke:none;font-family:NewCenturySchlbk;-inkscape-font-specification:NewCenturySchlbk-Roman"
         x="72.601486 78.207092 81.940422 85.673752 91.27935 96.257118 100.61828"
         y="83.523438"
         sodipodi:role="line"
         id="tspan115">effects</tspan><tspan
         style="font-size:11.21119976px;font-variant:normal;font-weight:normal;writing-mode:lr-tb;fill:#231f20;fill-opacity:1;fill-rule:nonzero;stroke:none;font-family:NewCenturySchlbk;-inkscape-font-specification:NewCenturySchlbk-Roman"
         x="65.538429 70.516205 76.121803 82.355232 87.333008 94.183052 97.299759 103.53319"
         y="94.734642"
         sodipodi:role="line"
         id="tspan117">reach 1%</tspan></text>
<text
       transform="matrix(0.9950719,0,0,-1,309.7254,640.2648)"
       id="text119"><tspan
         style="font-size:13.45339966px;font-variant:normal;font-weight:normal;writing-mode:lr-tb;fill:#231f20;fill-opacity:1;fill-rule:nonzero;stroke:none;font-family:Symbol;-inkscape-font-specification:Symbol"
         x="0"
         y="0"
         id="tspan121">Âµ</tspan></text>
<text
       transform="matrix(0.9950674,0,0,-1,317.4365,645.8704)"
       id="text123"><tspan
         style="font-size:11.21119976px;font-variant:normal;font-weight:normal;writing-mode:lr-tb;fill:#231f20;fill-opacity:1;fill-rule:nonzero;stroke:none;font-family:Symbol;-inkscape-font-specification:Symbol"
         x="0"
         y="0"
         id="tspan125">+</tspan></text>
<text
       transform="matrix(0.9950719,0,0,-1,327.28261,640.2648)"
       id="text127"><tspan
         style="font-size:13.45339966px;font-variant:normal;font-weight:normal;writing-mode:lr-tb;fill:#231f20;fill-opacity:1;fill-rule:nonzero;stroke:none;font-family:NewCenturySchlbk;-inkscape-font-specification:NewCenturySchlbk-Roman"
         x="0 6.7266998 14.946728 18.686773 28.400127"
         y="0"
         sodipodi:role="line"
         id="tspan129">on Cu</tspan></text>
<g
       id="g131"
       transform="scale(0.997532,1.002475)"><path
         d="M 301.77,631.974 L 373.344,631.974 L 373.344,655.459 L 301.77,655.459 L 301.77,631.974 z"
         style="fill:none;stroke:#000000;stroke-width:0.447;stroke-linecap:butt;stroke-linejoin:miter;stroke-miterlimit:2.5;stroke-dasharray:none;stroke-opacity:1"
         id="path133" /></g><text
       transform="matrix(0.9950674,0,0,-1,469.6577,476.5814)"
       id="text135"><tspan
         style="font-size:11.21119976px;font-variant:normal;font-weight:normal;writing-mode:lr-tb;fill:#231f20;fill-opacity:1;fill-rule:nonzero;stroke:none;font-family:NewCenturySchlbk;-inkscape-font-specification:NewCenturySchlbk-Roman"
         x="0 10.998187 14.529716 18.890871 25.740915 31.346516 38.19656 42.557716"
         y="0"
         sodipodi:role="line"
         id="tspan137">Without </tspan></text>
<text
       transform="matrix(0.9950674,0,0,-1,515.10684,476.5814)"
       id="text139"><tspan
         style="font-size:11.21119976px;font-variant:normal;font-weight:normal;writing-mode:lr-tb;fill:#231f20;fill-opacity:1;fill-rule:nonzero;stroke:none;font-family:Symbol;-inkscape-font-specification:Symbol"
         x="0"
         y="0"
         id="tspan141">Î´</tspan></text>
<text
       transform="matrix(0.9950674,0,0,-1,465.31025,535.90771)"
       id="text143"><tspan
         style="font-size:11.21119976px;font-variant:normal;font-weight:normal;writing-mode:lr-tb;fill:#231f20;fill-opacity:1;fill-rule:nonzero;stroke:none;font-family:NewCenturySchlbk;-inkscape-font-specification:NewCenturySchlbk-Roman"
         x="0 8.0944862 14.327913 20.763142 24.29467 30.528097 34.889256 38.420784 44.441196"
         y="0"
         sodipodi:role="line"
         id="tspan145">Radiative</tspan><tspan
         style="font-size:11.21119976px;font-variant:normal;font-weight:normal;writing-mode:lr-tb;fill:#231f20;fill-opacity:1;fill-rule:nonzero;stroke:none;font-family:NewCenturySchlbk;-inkscape-font-specification:NewCenturySchlbk-Roman"
         x="9.8658562 13.397384 19.002983 24.193769 29.384556 34.990154"
         y="12.33232"
         sodipodi:role="line"
         id="tspan147">losses</tspan></text>
<text
       transform="matrix(0.9950674,0,0,-1,334.34333,441.03293)"
       id="text149"><tspan
         style="font-size:11.21119976px;font-variant:normal;font-weight:normal;writing-mode:lr-tb;fill:#231f20;fill-opacity:1;fill-rule:nonzero;stroke:none;font-family:Symbol;-inkscape-font-specification:Symbol"
         x="0 6.1549487"
         y="0"
         sodipodi:role="line"
         id="tspan151">Î²Î³</tspan></text>
<path
       d="M 490.861,492.838 L 499.623,492.838 L 499.623,498.4436 L 490.861,498.4436 L 490.861,492.838 z"
       style="fill:#ffffff;fill-opacity:1;fill-rule:nonzero;stroke:none"
       id="path153" /><path
       d="M 148.328,488.493 L 155.928,488.493 L 155.928,512.667 L 148.328,512.667 L 148.328,488.493 z"
       style="fill:#f2f2f2;fill-opacity:1;fill-rule:nonzero;stroke:none"
       id="path155" /><text
       transform="matrix(0.9950645,0,0,-1,108.1103,450.0482)"
       id="text157"><tspan
         style="font-size:10.09010029px;font-variant:normal;font-weight:normal;writing-mode:lr-tb;fill:#000000;fill-opacity:1;fill-rule:nonzero;stroke:none;font-family:NewCenturySchlbk;-inkscape-font-specification:NewCenturySchlbk-Roman"
         x="0 5.6100955 8.415143 14.025239 19.635334 49.892517 55.502613 58.307659 63.917755 102.40039 108.01048 110.81553 154.81644 199.09886 204.70895 245.99664 251.60674 257.21683 289.90472 295.5148 301.12491 306.73502 339.73065 345.34073"
         y="0"
         sodipodi:role="line"
         id="tspan159">0.0010.010.1110100100010</tspan></text>
<text
       transform="matrix(0.9950719,0,0,-1,458.0822,453.4116)"
       id="text161"><tspan
         style="font-size:8.96889973px;font-variant:normal;font-weight:normal;writing-mode:lr-tb;fill:#000000;fill-opacity:1;fill-rule:nonzero;stroke:none;font-family:NewCenturySchlbk;-inkscape-font-specification:NewCenturySchlbk-Roman"
         x="0"
         y="0"
         id="tspan163">4</tspan></text>
<text
       transform="matrix(0.9950645,0,0,-1,495.6222,450.0482)"
       id="text165"><tspan
         style="font-size:10.09010029px;font-variant:normal;font-weight:normal;writing-mode:lr-tb;fill:#000000;fill-opacity:1;fill-rule:nonzero;stroke:none;font-family:NewCenturySchlbk;-inkscape-font-specification:NewCenturySchlbk-Roman"
         x="0 5.6100955"
         y="0"
         sodipodi:role="line"
         id="tspan167">10</tspan></text>
<text
       transform="matrix(0.9950719,0,0,-1,507.54,453.4116)"
       id="text169"><tspan
         style="font-size:8.96889973px;font-variant:normal;font-weight:normal;writing-mode:lr-tb;fill:#000000;fill-opacity:1;fill-rule:nonzero;stroke:none;font-family:NewCenturySchlbk;-inkscape-font-specification:NewCenturySchlbk-Roman"
         x="0"
         y="0"
         id="tspan171">5</tspan></text>
<text
       transform="matrix(0.9950645,0,0,-1,542.1051,450.0482)"
       id="text173"><tspan
         style="font-size:10.09010029px;font-variant:normal;font-weight:normal;writing-mode:lr-tb;fill:#000000;fill-opacity:1;fill-rule:nonzero;stroke:none;font-family:NewCenturySchlbk;-inkscape-font-specification:NewCenturySchlbk-Roman"
         x="0 5.6100955"
         y="0"
         sodipodi:role="line"
         id="tspan175">10</tspan></text>
<text
       transform="matrix(0.9950719,0,0,-1,554.0229,453.4116)"
       id="text177"><tspan
         style="font-size:8.96889973px;font-variant:normal;font-weight:normal;writing-mode:lr-tb;fill:#000000;fill-opacity:1;fill-rule:nonzero;stroke:none;font-family:NewCenturySchlbk;-inkscape-font-specification:NewCenturySchlbk-Roman"
         x="0"
         y="0"
         id="tspan179">6</tspan></text>
<text
       transform="matrix(0.9950674,0,0,-1,172.9886,395.3003)"
       id="text181"><tspan
         style="font-size:11.21119976px;font-variant:normal;font-weight:normal;writing-mode:lr-tb;fill:#000000;fill-opacity:1;fill-rule:nonzero;stroke:none;font-family:NewCenturySchlbk;-inkscape-font-specification:NewCenturySchlbk-Roman"
         x="0 3.7333295 14.316703 19.922302 28.016788"
         y="0"
         sodipodi:role="line"
         id="tspan183">[MeV/</tspan></text>
<text
       transform="matrix(0.9950674,0,0,-1,203.96853,395.3003)"
       id="text185"><tspan
         style="font-size:11.21119976px;font-style:italic;font-variant:normal;writing-mode:lr-tb;fill:#000000;fill-opacity:1;fill-rule:nonzero;stroke:none;font-family:NewCenturySchlbk;-inkscape-font-specification:NewCenturySchlbk-Italic"
         x="0"
         y="0"
         id="tspan187">c</tspan></text>
<text
       transform="matrix(0.9950674,0,0,-1,208.92175,395.3003)"
       id="text189"><tspan
         style="font-size:11.21119976px;font-variant:normal;font-weight:normal;writing-mode:lr-tb;fill:#000000;fill-opacity:1;fill-rule:nonzero;stroke:none;font-family:NewCenturySchlbk;-inkscape-font-specification:NewCenturySchlbk-Roman"
         x="0 133.54782 137.28114 146.00346 151.60905 159.70354"
         y="0"
         sodipodi:role="line"
         id="tspan191">][GeV/</tspan></text>
<text
       transform="matrix(0.9950674,0,0,-1,370.93889,395.3003)"
       id="text193"><tspan
         style="font-size:11.21119976px;font-style:italic;font-variant:normal;writing-mode:lr-tb;fill:#000000;fill-opacity:1;fill-rule:nonzero;stroke:none;font-family:NewCenturySchlbk;-inkscape-font-specification:NewCenturySchlbk-Italic"
         x="0"
         y="0"
         id="tspan195">c</tspan></text>
<text
       transform="matrix(0.9950674,0,0,-1,375.89211,395.3003)"
       id="text197"><tspan
         style="font-size:11.21119976px;font-variant:normal;font-weight:normal;writing-mode:lr-tb;fill:#000000;fill-opacity:1;fill-rule:nonzero;stroke:none;font-family:NewCenturySchlbk;-inkscape-font-specification:NewCenturySchlbk-Roman"
         x="0"
         y="0"
         id="tspan199">]</tspan></text>
<text
       transform="matrix(0.9950645,0,0,-1,256.9521,413.0513)"
       id="text201"><tspan
         style="font-size:10.09010029px;font-variant:normal;font-weight:normal;writing-mode:lr-tb;fill:#000000;fill-opacity:1;fill-rule:nonzero;stroke:none;font-family:NewCenturySchlbk;-inkscape-font-specification:NewCenturySchlbk-Roman"
         x="0 5.6100955 11.220191 -45.029091 -39.418995 -90.805855 -143.78191 -138.17181 -135.36676 143.50443 149.11452 154.72462 98.475342 104.08543 52.698574 288.12988 293.73996 299.35007 243.10078 248.71088 197.32402"
         y="0"
         sodipodi:role="line"
         id="tspan203">1001010.1100101100101</tspan></text>
<text
       transform="matrix(0.9950674,0,0,-1,486.3413,395.3003)"
       id="text205"><tspan
         style="font-size:11.21119976px;font-variant:normal;font-weight:normal;writing-mode:lr-tb;fill:#000000;fill-opacity:1;fill-rule:nonzero;stroke:none;font-family:NewCenturySchlbk;-inkscape-font-specification:NewCenturySchlbk-Roman"
         x="0 3.7333295 11.2112 16.816799 24.911287"
         y="0"
         sodipodi:role="line"
         id="tspan207">[TeV/</tspan></text>
<text
       transform="matrix(0.9950674,0,0,-1,514.23105,395.3003)"
       id="text209"><tspan
         style="font-size:11.21119976px;font-style:italic;font-variant:normal;writing-mode:lr-tb;fill:#000000;fill-opacity:1;fill-rule:nonzero;stroke:none;font-family:NewCenturySchlbk;-inkscape-font-specification:NewCenturySchlbk-Italic"
         x="0"
         y="0"
         id="tspan211">c</tspan></text>
<text
       transform="matrix(0.9950674,0,0,-1,519.18427,395.3003)"
       id="text213"><tspan
         style="font-size:11.21119976px;font-variant:normal;font-weight:normal;writing-mode:lr-tb;fill:#000000;fill-opacity:1;fill-rule:nonzero;stroke:none;font-family:NewCenturySchlbk;-inkscape-font-specification:NewCenturySchlbk-Roman"
         x="0"
         y="0"
         id="tspan215">]</tspan><tspan
         style="font-size:11.21119976px;font-variant:normal;font-weight:normal;writing-mode:lr-tb;fill:#231f20;fill-opacity:1;fill-rule:nonzero;stroke:none;font-family:NewCenturySchlbk;-inkscape-font-specification:NewCenturySchlbk-Roman"
         x="-370.91693 -362.82245 -355.97241 -349.5372 -343.93158 -338.95383 -333.76303 -328.15744 -321.30737"
         y="-194.95828"
         sodipodi:role="line"
         id="tspan217">Anderson-</tspan><tspan
         style="font-size:11.21119976px;font-variant:normal;font-weight:normal;writing-mode:lr-tb;fill:#231f20;fill-opacity:1;fill-rule:nonzero;stroke:none;font-family:NewCenturySchlbk;-inkscape-font-specification:NewCenturySchlbk-Roman"
         x="-362.30673 -355.4567 -351.92517 -346.31958 -340.29916 -336.76764 -331.16202"
         y="-182.62596"
         sodipodi:role="line"
         id="tspan219">Ziegler</tspan><tspan
         style="font-size:11.21119976px;font-variant:normal;font-weight:normal;writing-mode:lr-tb;fill:#231f20;fill-opacity:1;fill-rule:nonzero;stroke:none;font-family:NewCenturySchlbk;-inkscape-font-specification:NewCenturySchlbk-Roman"
         x="-395.35962 -386.22247 -379.37244 -374.39465 -370.86313 -365.25754 -359.02411"
         y="-107.81475"
         sodipodi:role="line"
         id="tspan221">Nuclear</tspan><tspan
         style="font-size:11.21119976px;font-variant:normal;font-weight:normal;writing-mode:lr-tb;fill:#231f20;fill-opacity:1;fill-rule:nonzero;stroke:none;font-family:NewCenturySchlbk;-inkscape-font-specification:NewCenturySchlbk-Roman"
         x="-389.8605 -386.32898 -380.72339 -375.53259 -370.3418 -364.73621"
         y="-96.603546"
         sodipodi:role="line"
         id="tspan223">losses</tspan></text>
<path
       d="M 138.808,476.692 L 136.668,468.955 L 134.262,479.251 L 136.837,476.288 L 138.808,476.692"
       style="fill:#000000;fill-opacity:1;fill-rule:nonzero;stroke:none"
       id="path225" /><g
       id="g227"
       transform="scale(0.997532,1.002475)"><path
         d="M 136.999,484.911 L 136.999,472.982"
         style="fill:none;stroke:#000000;stroke-width:0.55900002;stroke-linecap:butt;stroke-linejoin:miter;stroke-miterlimit:2.5;stroke-dasharray:none;stroke-opacity:1"
         id="path229" /></g><g
       id="g231"
       transform="scale(0.997532,1.002475)"><path
         d="M 121.747,427.683 L 553.646,427.683 M 121.747,427.683 L 121.747,435.196 M 169.711,427.683 L 169.711,435.196 M 217.707,427.683 L 217.707,435.196 M 265.703,427.683 L 265.703,435.196 M 313.699,427.683 L 313.699,435.196 M 361.663,427.683 L 361.663,435.196 M 409.659,427.683 L 409.659,435.196 M 457.654,427.683 L 457.654,435.196 M 505.65,427.683 L 505.65,435.196 M 553.646,427.683 L 553.646,435.196 M 279.403,415.765 L 279.403,408.252 L 279.472,408.252 L 108.886,408.252 L 108.886,415.765 M 422.552,415.765 L 422.552,408.252 L 422.621,408.252 L 306.834,408.252 L 306.834,415.765 M 566.819,415.765 L 566.819,408.252 L 566.889,408.252 L 451.102,408.252 L 451.102,415.765"
         style="fill:none;stroke:#000000;stroke-width:0.447;stroke-linecap:butt;stroke-linejoin:miter;stroke-miterlimit:2.5;stroke-dasharray:none;stroke-opacity:1"
         id="path233" /></g><path
       d="M 493.157,498.241 L 495.348,505.965 L 497.686,495.652 L 495.13,498.632 L 493.157,498.241"
       style="fill:#000000;fill-opacity:1;fill-rule:nonzero;stroke:none"
       id="path235" /><g
       id="g237"
       transform="scale(0.997532,1.002475)"><path
         d="M 496.642,500.632 L 496.642,484.631"
         style="fill:none;stroke:#000000;stroke-width:0.671;stroke-linecap:butt;stroke-linejoin:miter;stroke-miterlimit:4;stroke-dasharray:none;stroke-opacity:1"
         id="path239" /></g><g
       id="g241"
       transform="scale(0.997532,1.002475)"><path
         d="M 471.945,530.391 L 453.095,519.298"
         style="fill:none;stroke:#000000;stroke-width:0.55900002;stroke-linecap:butt;stroke-linejoin:miter;stroke-miterlimit:4;stroke-dasharray:none;stroke-opacity:1"
         id="path243" /></g><path
       d="M 456.404,520.394 L 448.653,518.439 L 456.371,525.63 L 455.081,521.916 L 456.404,520.394"
       style="fill:#000000;fill-opacity:1;fill-rule:nonzero;stroke:none"
       id="path245" /><text
       transform="matrix(0.9950674,0,0,-1,264.0767,521.4261)"
       id="text247"><tspan
         style="font-size:11.21119976px;font-variant:normal;font-weight:normal;writing-mode:lr-tb;fill:#231f20;fill-opacity:1;fill-rule:nonzero;stroke:none;font-family:NewCenturySchlbk;-inkscape-font-specification:NewCenturySchlbk-Roman"
         x="0 10.583373 14.114901 20.964945 24.496471 34.46323 41.313271"
         y="0"
         sodipodi:role="line"
         id="tspan249">Minimum</tspan><tspan
         style="font-size:11.21119976px;font-variant:normal;font-weight:normal;writing-mode:lr-tb;fill:#231f20;fill-opacity:1;fill-rule:nonzero;stroke:none;font-family:NewCenturySchlbk;-inkscape-font-specification:NewCenturySchlbk-Roman"
         x="-0.1065064 3.4250216 9.0306215 15.880665 19.412193 24.804779 31.038208 35.399364 38.930893 44.536491"
         y="11.2112"
         sodipodi:role="line"
         id="tspan251">ionization</tspan></text>
<text
       transform="matrix(0.9950699,0,0,-1,424.2296,552.8175)"
       id="text253"><tspan
         style="font-size:12.33230019px;font-style:italic;font-variant:normal;writing-mode:lr-tb;fill:#231f20;fill-opacity:1;fill-rule:nonzero;stroke:none;font-family:NewCenturySchlbk;-inkscape-font-specification:NewCenturySchlbk-Italic"
         x="0"
         y="0"
         id="tspan255">E</tspan></text>
<text
       transform="matrix(0.9950645,0,0,-1,433.0896,550.5753)"
       id="text257"><tspan
         style="font-size:10.09010029px;font-variant:normal;font-weight:normal;writing-mode:lr-tb;fill:#231f20;fill-opacity:1;fill-rule:nonzero;stroke:none;font-family:Symbol;-inkscape-font-specification:Symbol"
         x="0"
         y="0"
         id="tspan259">Âµ</tspan></text>
<text
       transform="matrix(0.9950645,0,0,-1,438.87281,550.5753)"
       id="text261"><tspan
         style="font-size:10.09010029px;font-style:italic;font-variant:normal;writing-mode:lr-tb;fill:#231f20;fill-opacity:1;fill-rule:nonzero;stroke:none;font-family:NewCenturySchlbk;-inkscape-font-specification:NewCenturySchlbk-Italic"
         x="0"
         y="0"
         id="tspan263">c</tspan></text>
<g
       id="g265"
       transform="scale(0.997532,1.002475)"><path
         d="M 350.138,506.719 L 350.138,463.383"
         style="fill:none;stroke:#000000;stroke-width:0.55900002;stroke-linecap:butt;stroke-linejoin:miter;stroke-miterlimit:2.5;stroke-dasharray:none;stroke-opacity:1"
         id="path267" /></g><text
       transform="matrix(0.9950719,0,0,-1,166.5578,615.6002)"
       id="text269"><tspan
         style="font-size:13.45339966px;font-variant:normal;font-weight:normal;writing-mode:lr-tb;fill:#231f20;fill-opacity:1;fill-rule:nonzero;stroke:none;font-family:Symbol;-inkscape-font-specification:Symbol"
         x="0"
         y="0"
         id="tspan271">Âµ</tspan></text>
<text
       transform="matrix(0.9950674,0,0,-1,174.2688,621.2057)"
       id="text273"><tspan
         style="font-size:11.21119976px;font-variant:normal;font-weight:normal;writing-mode:lr-tb;fill:#231f20;fill-opacity:1;fill-rule:nonzero;stroke:none;font-family:Symbol;-inkscape-font-specification:Symbol"
         x="0"
         y="0"
         id="tspan275">âˆ’</tspan></text>
<path
       d="M 191.424,621.845 L 199.123,619.694 L 188.877,617.277 L 191.826,619.864 L 191.424,621.845"
       style="fill:#000000;fill-opacity:1;fill-rule:nonzero;stroke:none"
       id="path277" /><g
       id="g279"
       transform="scale(0.997532,1.002475)"><path
         d="M 178.029,618.158 L 194.431,618.158"
         style="fill:none;stroke:#000000;stroke-width:0.55900002;stroke-linecap:butt;stroke-linejoin:miter;stroke-miterlimit:2.5;stroke-dasharray:none;stroke-opacity:1"
         id="path281" /></g><g
       id="g283"
       transform="scale(0.997532,1.002475)"><path
         d="M 196.783,624.585 L 200.999,621.13 L 204.01,617.579 L 206.325,614.346 L 208.227,611.303 L 211.238,605.977 L 213.553,601.539 L 215.455,597.703"
         style="fill:none;stroke:#000000;stroke-width:0.55900002;stroke-linecap:butt;stroke-linejoin:miter;stroke-miterlimit:2.5;stroke-dasharray:1.1184, 1.1184;stroke-dashoffset:0;stroke-opacity:1"
         id="path285" /></g><text
       transform="matrix(1,0,0,-1,306.59684,366.945)"
       id="text303"><tspan
         style="font-size:11.9552002px;font-style:italic;font-variant:normal;font-weight:normal;writing-mode:lr-tb;fill:#000000;fill-opacity:1;fill-rule:nonzero;stroke:none;font-family:CMSY10;-inkscape-font-specification:CMSY10"
         x="0"
         y="0"
         id="tspan305">ÿ¿¿¿¿¿ÿ¿¿¿¿¿ÿ¿¿¿¿¿ÿ¿¿¿¿¿ÿ¿¿¿¿¿ÿ¿¿¿¿¿ÿ¿¿¿¿¿ÿ¿¿¿¿¿ÿ¿¿¿¿¿ÿ¿¿¿¿¿ÿ¿¿¿¿¿ÿ¿¿¿¿¿ÿ¿¿¿¿¿ÿ¿¿¿¿¿ÿ¿¿¿¿¿ÿ¿¿¿¿¿ÿ¿¿¿¿¿ÿ¿¿¿¿¿ÿ¿¿¿¿¿ÿ¿¿¿¿¿ÿ¿¿¿¿¿ÿ¿¿¿¿¿ÿ¿¿¿¿¿ÿ¿¿¿¿¿ÿ¿¿¿¿¿ÿ¿¿¿¿¿ÿ¿¿¿¿¿ÿ¿¿¿¿¿ÿ¿¿¿¿¿ÿ¿¿¿¿¿ÿ¿¿¿¿¿ÿ¿¿¿¿¿ÿ¿¿¿¿¿ÿ¿¿¿¿¿ÿ¿¿¿¿¿ÿ¿¿¿¿¿</tspan></text>
<text
       transform="matrix(1,0,0,-1,266.16,169.185)"
       id="text441"><tspan
         style="font-size:11.9552002px;font-variant:normal;font-weight:normal;writing-mode:lr-tb;fill:#000000;fill-opacity:1;fill-rule:nonzero;stroke:none;font-family:CMEX10;-inkscape-font-specification:CMEX10"
         x="0"
         y="0"
         id="tspan443">ÿ¿¿¿¿¿ÿ¿¿¿¿¿ÿ¿¿¿¿¿ÿ¿¿¿¿¿ÿ¿¿¿¿¿ÿ¿¿¿¿¿ÿ¿¿¿¿¿ÿ¿¿¿¿¿ÿ¿¿¿¿¿ÿ¿¿¿¿¿ÿ¿¿¿¿¿ÿ¿¿¿¿¿ÿ¿¿¿¿¿ÿ¿¿¿¿¿ÿ¿¿¿¿¿ÿ¿¿¿¿¿ÿ¿¿¿¿¿ÿ¿¿¿¿¿ÿ¿¿¿¿¿ÿ¿¿¿¿¿ÿ¿¿¿¿¿ÿ¿¿¿¿¿ÿ¿¿¿¿¿ÿ¿¿¿¿¿ÿ¿¿¿¿¿ÿ¿¿¿¿¿ÿ¿¿¿¿¿ÿ¿¿¿¿¿ÿ¿¿¿¿¿ÿ¿¿¿¿¿ÿ¿¿¿¿¿ÿ¿¿¿¿¿ÿ¿¿¿¿¿ÿ¿¿¿¿¿ÿ¿¿¿¿¿ÿ¿¿¿¿¿</tspan></text>
<text
       transform="matrix(1,0,0,-1,457.3205,169.18462)"
       id="text553"><tspan
         style="font-size:11.9552002px;font-variant:normal;font-weight:normal;writing-mode:lr-tb;fill:#000000;fill-opacity:1;fill-rule:nonzero;stroke:none;font-family:CMEX10;-inkscape-font-specification:CMEX10"
         x="0"
         y="0"
         id="tspan555">ÿ¿¿¿¿¿ÿ¿¿¿¿¿ÿ¿¿¿¿¿ÿ¿¿¿¿¿ÿ¿¿¿¿¿ÿ¿¿¿¿¿ÿ¿¿¿¿¿ÿ¿¿¿¿¿ÿ¿¿¿¿¿ÿ¿¿¿¿¿ÿ¿¿¿¿¿ÿ¿¿¿¿¿ÿ¿¿¿¿¿ÿ¿¿¿¿¿ÿ¿¿¿¿¿ÿ¿¿¿¿¿ÿ¿¿¿¿¿ÿ¿¿¿¿¿ÿ¿¿¿¿¿ÿ¿¿¿¿¿ÿ¿¿¿¿¿ÿ¿¿¿¿¿ÿ¿¿¿¿¿ÿ¿¿¿¿¿ÿ¿¿¿¿¿ÿ¿¿¿¿¿ÿ¿¿¿¿¿ÿ¿¿¿¿¿ÿ¿¿¿¿¿ÿ¿¿¿¿¿ÿ¿¿¿¿¿ÿ¿¿¿¿¿ÿ¿¿¿¿¿ÿ¿¿¿¿¿ÿ¿¿¿¿¿ÿ¿¿¿¿¿</tspan></text>
</g></svg>